<svg width="400" height="400" viewBox="0 0 400 400" fill="none" xmlns="http://www.w3.org/2000/svg">
<rect width="400" height="400" fill="#BD5FFF"/>
<path d="M86.1651 244.477C86.1651 244.477 86 227.158 86 217.543C86 213.808 86.8078 212.019 90.6295 212.053C92.4969 212.071 93.2004 212.045 95.2763 212.071C98.5768 212.123 101.33 212.106 104.283 212.097C106.55 212.097 111.501 212.158 113.473 210.143C127.891 195.421 137.567 146.356 151.307 131.078C156.145 125.666 161.895 122.783 169.26 123.052C172.135 123.139 175.002 123.052 177.885 123.052C184.26 123.226 188.117 126.9 188.117 133.179C188.204 148.11 188.204 192.25 188.03 207.19C187.943 211.037 189.289 212.34 193.233 212.253C199.434 212.166 204.368 210.16 208.415 205.609C222.243 190.418 236.079 146.364 249.724 131.156C254.753 125.571 260.781 122.6 268.493 123.043C271.099 123.217 273.696 123.043 276.302 123.043C282.859 123.13 286.629 126.804 286.716 133.344C286.803 146.008 286.716 187.873 286.716 200.536C286.716 208.223 290.729 212.071 298.745 212.071C306.762 212.071 300.726 212.245 309.073 211.984C312.755 211.897 314.536 213.747 314.536 217.499C314.519 218.42 314.51 219.341 314.501 220.253H314.553V240.065C314.571 243.713 314.579 247.378 314.553 251.147V263.959H314.484C314.432 271.472 313.155 276.37 303.245 276.605C296.774 276.779 290.312 276.518 283.85 276.692C279.985 276.866 278.551 275.65 278.551 271.715C278.734 256.524 278.551 241.228 278.638 226.037C278.638 222.893 278.1 220.105 274.773 218.785C271.368 217.473 269.119 219.306 266.965 221.668C254.753 235.209 242.358 248.655 230.146 262.196C221.609 271.628 210.838 276.518 197.905 276.605C193.502 276.605 189.107 276.518 184.703 276.692C181.107 276.866 179.944 275.38 179.944 271.976C180.03 256.784 179.944 241.489 180.03 226.298C180.03 223.067 179.944 220.01 176.252 218.611C172.57 217.213 170.407 219.393 168.175 221.755C156.049 235.036 143.838 248.307 131.799 261.674C122.731 271.715 111.501 276.866 97.7604 276.692C91.2027 276.605 96.7441 276.605 90.1865 276.692C86.9555 276.779 86.0608 275.658 86.1477 272.505C86.1738 262.612 86.1477 253.805 86.1477 244.451H86.1564L86.1651 244.477Z" fill="#1F004A"/>
</svg>
