<svg width="940" height="360" viewBox="0 0 940 360" fill="none" xmlns="http://www.w3.org/2000/svg">
<rect width="940" height="360" fill="#1F004A"/>
<path d="M82.132 221.322C82.132 221.322 82 207.534 82 199.874C82 196.907 82.6427 195.472 85.6891 195.498C87.177 195.516 87.7405 195.498 89.387 195.516C92.0195 195.56 94.2031 195.542 96.5539 195.534C98.3588 195.534 102.303 195.586 103.87 193.975C115.352 182.256 123.055 143.191 133.991 131.032C137.847 126.717 142.417 124.428 148.28 124.64C150.57 124.71 152.85 124.64 155.148 124.64C160.219 124.78 163.292 127.704 163.292 132.704C163.363 144.591 163.363 179.73 163.222 191.624C163.151 194.688 164.226 195.727 167.369 195.657C172.299 195.586 176.235 193.993 179.449 190.365C190.454 178.268 201.469 143.2 212.333 131.093C216.34 126.647 221.138 124.287 227.275 124.631C229.353 124.772 231.422 124.631 233.491 124.631C238.712 124.701 241.714 127.624 241.785 132.837C241.855 142.918 241.785 176.252 241.785 186.333C241.785 192.452 244.981 195.516 251.364 195.516C257.747 195.516 252.94 195.657 259.587 195.446C262.519 195.375 263.937 196.846 263.937 199.839C263.919 200.579 263.919 201.301 263.91 202.031H263.946V217.809C263.963 220.706 263.963 223.629 263.946 226.631V236.836H263.893C263.849 242.814 262.836 246.714 254.947 246.908C249.797 247.049 244.655 246.838 239.504 246.979C236.431 247.119 235.287 246.142 235.287 243.017C235.437 230.919 235.287 218.742 235.357 206.654C235.357 204.144 234.926 201.926 232.285 200.878C229.573 199.839 227.777 201.292 226.069 203.176C216.348 213.953 206.478 224.659 196.758 235.445C189.961 242.955 181.386 246.846 171.093 246.917C167.589 246.917 164.093 246.846 160.589 246.987C157.728 247.128 156.803 245.948 156.803 243.237C156.874 231.139 156.803 218.962 156.874 206.874C156.874 204.303 156.803 201.873 153.871 200.755C150.939 199.645 149.223 201.38 147.435 203.264C137.777 213.838 128.056 224.404 118.477 235.04C111.257 243.034 102.321 247.137 91.3768 246.996C86.1557 246.926 90.5668 246.926 85.3457 246.996C82.7747 247.067 82.0616 246.169 82.132 243.668C82.1496 235.788 82.132 228.78 82.132 221.331V221.322Z" fill="#BD5FFF"/>
<path d="M460.152 178.955V229.062H434.196V183.102C434.196 175.53 432.576 169.613 429.327 165.352C426.079 161.091 421.641 158.951 415.989 158.951C410.336 158.951 405.714 161.082 402.474 165.352C399.234 169.622 397.605 175.539 397.605 183.102V229.062H371.649V183.102C371.649 175.53 370.029 169.613 366.78 165.352C363.54 161.091 359.032 158.951 353.265 158.951C347.498 158.951 343.175 161.082 339.926 165.352C336.686 169.613 335.057 175.539 335.057 183.102V229.062H309.102V139.845H335.057V166.162C336.739 157.155 340.287 150.155 345.693 145.163C351.099 140.171 357.826 137.679 365.882 137.679C373.938 137.679 381.026 140.382 386.432 145.788C391.838 151.194 395.324 158.705 396.883 168.319C398.441 158.705 402.016 151.194 407.607 145.788C413.197 140.382 420.188 137.679 428.605 137.679C438.334 137.679 446.03 141.377 451.673 148.764C457.317 156.151 460.143 166.215 460.143 178.955H460.152Z" fill="#F1F5F8"/>
<path d="M567.926 139.845V229.062H541.97V202.745C540.288 211.637 536.714 218.602 531.246 223.656C525.779 228.709 519.017 231.227 510.969 231.227C501.24 231.227 493.519 227.53 487.813 220.143C482.108 212.756 479.255 202.692 479.255 189.952V139.845H505.211V185.805C505.211 193.491 506.831 199.443 510.08 203.643C513.329 207.851 517.828 209.947 523.595 209.947C529.362 209.947 533.87 207.843 537.11 203.643C540.35 199.443 541.979 193.491 541.979 185.805V139.845H567.935H567.926Z" fill="#F1F5F8"/>
<path d="M681.284 178.955V229.062H655.329V183.102C655.329 175.416 653.647 169.464 650.284 165.255C646.92 161.047 642.175 158.951 636.047 158.951C629.919 158.951 625.358 161.055 621.986 165.255C618.614 169.455 616.941 175.407 616.941 183.102V229.062H590.985V139.845H616.941V166.162C618.622 157.155 622.223 150.155 627.753 145.163C633.282 140.171 640.246 137.679 648.663 137.679C658.877 137.679 666.862 141.342 672.629 148.676C678.396 156.002 681.284 166.1 681.284 178.955Z" fill="#F1F5F8"/>
<path d="M710.657 199.496V161.451H691.551V139.845H695.513C702.724 139.845 707.831 138.375 710.833 135.434C713.835 132.493 715.341 127.598 715.341 120.748V113H738.77V120.748C738.77 127.351 737.211 132.071 734.086 134.897C730.96 137.723 725.431 139.37 717.507 139.854H763.282V161.46H736.613V193.738C736.613 199.381 737.608 203.528 739.589 206.17C741.57 208.811 744.607 210.132 748.692 210.132C754.222 210.132 757.541 209.445 767.613 202.894V229.053C758.782 232.9 710.666 243.712 710.666 199.496H710.657Z" fill="#F1F5F8"/>
<path d="M801.492 207.966H857.004V229.053H778.97V198.237L833.575 161.108H779.868V139.845H856.282V170.661L801.492 207.966Z" fill="#F1F5F8"/>
</svg>
